<svg width="21" height="18" viewBox="0 0 21 18" fill="none" xmlns="http://www.w3.org/2000/svg">
<path d="M8.72304 1.85092L1.23689 14.3485C1.08254 14.6158 1.00087 14.9188 1.00001 15.2275C0.999143 15.5361 1.07911 15.8396 1.23196 16.1078C1.38481 16.3759 1.60521 16.5994 1.87123 16.7559C2.13725 16.9125 2.43962 16.9966 2.74826 17H17.7206C18.0292 16.9966 18.3316 16.9125 18.5976 16.7559C18.8636 16.5994 19.084 16.3759 19.2369 16.1078C19.3897 15.8396 19.4697 15.5361 19.4688 15.2275C19.468 14.9188 19.3863 14.6158 19.2319 14.3485L11.7458 1.85092C11.5882 1.59116 11.3664 1.3764 11.1016 1.22735C10.8369 1.0783 10.5382 1 10.2344 1C9.93061 1 9.63193 1.0783 9.36719 1.22735C9.10246 1.3764 8.88061 1.59116 8.72304 1.85092V1.85092Z" stroke="#FFA902" stroke-width="2" stroke-linecap="round" stroke-linejoin="round"/>
<path d="M10.2349 6.39355V9.92893" stroke="#FFA902" stroke-width="2" stroke-linecap="round" stroke-linejoin="round"/>
<path d="M10.2349 13.4639H10.2444" stroke="#FFA902" stroke-width="2" stroke-linecap="round" stroke-linejoin="round"/>
</svg>
