<svg width="27" height="30" viewBox="0 0 27 30" fill="none" xmlns="http://www.w3.org/2000/svg">
<path d="M21.8333 9.33333C21.8333 7.1232 20.9554 5.00358 19.3926 3.44078C17.8298 1.87797 15.7101 1 13.5 1C11.2899 1 9.17025 1.87797 7.60744 3.44078C6.04464 5.00358 5.16667 7.1232 5.16667 9.33333C5.16667 19.0556 1 21.8333 1 21.8333H26C26 21.8333 21.8333 19.0556 21.8333 9.33333Z" stroke="black" stroke-width="2" stroke-linecap="round" stroke-linejoin="round"/>
<path d="M15.9027 27.3889C15.6585 27.8099 15.3081 28.1593 14.8864 28.4022C14.4647 28.645 13.9866 28.7729 13.4999 28.7729C13.0133 28.7729 12.5352 28.645 12.1135 28.4022C11.6918 28.1593 11.3413 27.8099 11.0972 27.3889" fill="black"/>
<path d="M15.9027 27.3889C15.6585 27.8099 15.3081 28.1593 14.8864 28.4022C14.4647 28.645 13.9866 28.7729 13.4999 28.7729C13.0133 28.7729 12.5352 28.645 12.1135 28.4022C11.6918 28.1593 11.3413 27.8099 11.0972 27.3889" stroke="black" stroke-width="2" stroke-linecap="round" stroke-linejoin="round"/>
</svg>
