<svg width="15" height="18" viewBox="0 0 15 18" fill="none" xmlns="http://www.w3.org/2000/svg">
<path d="M12.2 8.19983H2.4C1.6268 8.19983 1 8.91617 1 9.79983V15.3998C1 16.2835 1.6268 16.9998 2.4 16.9998H12.2C12.9732 16.9998 13.6 16.2835 13.6 15.3998V9.79983C13.6 8.91617 12.9732 8.19983 12.2 8.19983Z" stroke="#6F6F76" stroke-width="2" stroke-linecap="round" stroke-linejoin="round"/>
<path d="M3.80005 8.2V5C3.80005 3.93913 4.1688 2.92172 4.82518 2.17157C5.48155 1.42143 6.37179 1 7.30005 1C8.22831 1 9.11855 1.42143 9.77492 2.17157C10.4313 2.92172 10.8 3.93913 10.8 5V8.2" stroke="#6F6F76" stroke-width="2" stroke-linecap="round" stroke-linejoin="round"/>
</svg>
