<svg width="19" height="19" viewBox="0 0 19 19" fill="none" xmlns="http://www.w3.org/2000/svg">
<path d="M16.1111 1H2.88889C1.84568 1 1 1.84568 1 2.88889V16.1111C1 17.1543 1.84568 18 2.88889 18H16.1111C17.1543 18 18 17.1543 18 16.1111V2.88889C18 1.84568 17.1543 1 16.1111 1Z" stroke="white" stroke-width="1.5" stroke-linecap="round" stroke-linejoin="round"/>
<path d="M9.5 17.1499L9.5 5.2499L6.1 3.5499" stroke="white" stroke-linecap="round" stroke-linejoin="round"/>
<path d="M9.07471 17.1499L9.07471 5.2499L12.4747 3.5499" stroke="white" stroke-linecap="round" stroke-linejoin="round"/>
<path d="M9.92529 9.5L13.3253 7.8M9.92529 13.75L13.3253 12.05" stroke="white" stroke-linecap="round" stroke-linejoin="round"/>
<path d="M8.6499 9.5L5.2499 7.8M8.6499 13.75L5.2499 12.05" stroke="white" stroke-linecap="round" stroke-linejoin="round"/>
</svg>
