<svg width="75" height="2608" viewBox="0 0 75 2608" fill="none" xmlns="http://www.w3.org/2000/svg">
<g filter="url(#filter0_i)">
<path d="M0 0H48.2857V326C48.2857 326 48.2857 350.5 48.2857 368C48.2857 386.243 48.3941 387.257 48.2857 405.5C48.1782 423.58 48.2857 420.42 48.2857 438.5C48.2857 454 75.2992 469.514 74.5 489.5C73.7504 508.243 48.2857 531.25 48.2857 540C48.2857 548.75 48.2857 570.5 48.2857 570.5V652V1304V1484.64C48.2857 1484.64 48.2857 1543.18 48.2857 1588.22C48.2857 1633.25 48.2857 1654.47 48.2857 1691C48.2857 1727.53 51.7566 1737.22 48.2857 1795.88C44.8148 1854.54 48.2857 1956 48.2857 1956V2608H0V0Z" fill="#141437"/>
</g>
<defs>
<filter id="filter0_i" x="0" y="0" width="74.5174" height="2612" filterUnits="userSpaceOnUse" color-interpolation-filters="sRGB">
<feFlood flood-opacity="0" result="BackgroundImageFix"/>
<feBlend mode="normal" in="SourceGraphic" in2="BackgroundImageFix" result="shape"/>
<feColorMatrix in="SourceAlpha" type="matrix" values="0 0 0 0 0 0 0 0 0 0 0 0 0 0 0 0 0 0 127 0" result="hardAlpha"/>
<feOffset dy="4"/>
<feGaussianBlur stdDeviation="2"/>
<feComposite in2="hardAlpha" operator="arithmetic" k2="-1" k3="1"/>
<feColorMatrix type="matrix" values="0 0 0 0 0 0 0 0 0 0 0 0 0 0 0 0 0 0 0.25 0"/>
<feBlend mode="normal" in2="shape" result="effect1_innerShadow"/>
</filter>
</defs>
</svg>
