<svg width="22" height="22" viewBox="0 0 22 22" fill="none" xmlns="http://www.w3.org/2000/svg">
<path fill-rule="evenodd" clip-rule="evenodd" d="M10 0H12V2.96342H10V0ZM3.95993 2.51099L5.75993 4.30913L4.33993 5.72555L2.54993 3.9274L3.95993 2.51099ZM3 9.99561H0V12.0047H3V9.99561ZM19.4477 3.91955L18.0405 2.50615L16.2516 4.30319L17.6587 5.71669L19.4477 3.91955ZM16.24 17.6899L18.03 19.4981L19.44 18.0817L17.64 16.2835L16.24 17.6899ZM22 9.99561H19V12.0047H22V9.99561ZM11.0001 4.97256C7.69009 4.97256 5.00009 7.6748 5.00009 10.9999C5.00009 14.3249 7.69009 17.0272 11.0001 17.0272C14.3101 17.0272 17.0001 14.3249 17.0001 10.9999C17.0001 7.6748 14.3101 4.97256 11.0001 4.97256ZM7.00001 11.0001C7.00001 13.2201 8.79001 15.0183 11 15.0183C13.21 15.0183 15 13.2201 15 11.0001C15 8.78003 13.21 6.98188 11 6.98188C8.79001 6.98188 7.00001 8.78003 7.00001 11.0001ZM9.9999 19.0368H11.9999V22.0002H9.9999V19.0368ZM3.95993 19.4883L2.54993 18.0719L4.33993 16.2637L5.74993 17.6801L3.95993 19.4883Z" fill="#141437"/>
</svg>
