<svg width="21" height="19" viewBox="0 0 21 19" fill="none" xmlns="http://www.w3.org/2000/svg">
<path d="M8.81142 2.67513L1.32527 15.1727C1.17092 15.44 1.08925 15.743 1.08839 16.0517C1.08752 16.3603 1.16749 16.6638 1.32034 16.932C1.47319 17.2002 1.69359 17.4236 1.95961 17.5801C2.22563 17.7367 2.528 17.8208 2.83664 17.8242H17.809C18.1176 17.8208 18.42 17.7367 18.686 17.5801C18.952 17.4236 19.1724 17.2002 19.3253 16.932C19.4781 16.6638 19.5581 16.3603 19.5572 16.0517C19.5563 15.743 19.4747 15.44 19.3203 15.1727L11.8342 2.67513C11.6766 2.41538 11.4548 2.20062 11.19 2.05157C10.9253 1.90252 10.6266 1.82422 10.3228 1.82422C10.019 1.82422 9.72031 1.90252 9.45557 2.05157C9.19084 2.20062 8.96899 2.41538 8.81142 2.67513V2.67513Z" stroke="#FF0202" stroke-width="2" stroke-linecap="round" stroke-linejoin="round"/>
<path d="M10.3232 7.21777V10.7531" stroke="#FF0202" stroke-width="2" stroke-linecap="round" stroke-linejoin="round"/>
<path d="M10.3232 14.2881H10.3328" stroke="#FF0202" stroke-width="2" stroke-linecap="round" stroke-linejoin="round"/>
</svg>
