<svg width="23" height="22" viewBox="0 0 23 22" fill="none" xmlns="http://www.w3.org/2000/svg">
<path d="M9.78149 2.06364L1.26935 17.6856C1.09385 18.0197 1.00099 18.3985 1.00001 18.7843C0.999025 19.1702 1.08996 19.5495 1.26375 19.8847C1.43755 20.2199 1.68815 20.4992 1.99063 20.6949C2.29311 20.8906 2.63692 20.9958 2.98786 21H20.0121C20.3631 20.9958 20.7069 20.8906 21.0094 20.6949C21.3118 20.4992 21.5625 20.2199 21.7362 19.8847C21.91 19.5495 22.001 19.1702 22 18.7843C21.999 18.3985 21.9061 18.0197 21.7306 17.6856L13.2185 2.06364C13.0393 1.73895 12.7871 1.4705 12.4861 1.28419C12.1851 1.09788 11.8454 1 11.5 1C11.1546 1 10.8149 1.09788 10.5139 1.28419C10.2129 1.4705 9.96065 1.73895 9.78149 2.06364V2.06364Z" stroke="#141437" stroke-width="2" stroke-linecap="round" stroke-linejoin="round"/>
<path d="M11.5005 7.74219V12.1614" stroke="#141437" stroke-width="2" stroke-linecap="round" stroke-linejoin="round"/>
<path d="M11.5005 16.5801H11.5119" stroke="#141437" stroke-width="2" stroke-linecap="round" stroke-linejoin="round"/>
</svg>
